<?xml version="1.0" encoding="UTF-8" standalone="no"?>
<svg
   version="1.1"
   width="294.465pt"
   height="204.73199pt"
   viewBox="0 0 294.465 204.732"
   id="svg28"
   sodipodi:docname="MMIS-vector-logo.svg"
   inkscape:version="1.3.2 (091e20e, 2023-11-25)"
   inkscape:export-filename="MMIS-vector-logo.png"
   inkscape:export-xdpi="293.41348"
   inkscape:export-ydpi="293.41348"
   xmlns:inkscape="http://www.inkscape.org/namespaces/inkscape"
   xmlns:sodipodi="http://sodipodi.sourceforge.net/DTD/sodipodi-0.dtd"
   xmlns="http://www.w3.org/2000/svg"
   xmlns:svg="http://www.w3.org/2000/svg">
  <defs
     id="defs28">
    <rect
       x="18.817562"
       y="14.813827"
       width="413.98639"
       height="112.50501"
       id="rect1" />
    <rect
       x="28.876909"
       y="13.02292"
       width="327.83786"
       height="72.47538"
       id="rect28" />
  </defs>
  <sodipodi:namedview
     id="namedview28"
     pagecolor="#ffffff"
     bordercolor="#000000"
     borderopacity="0.25"
     inkscape:showpageshadow="2"
     inkscape:pageopacity="0.0"
     inkscape:pagecheckerboard="0"
     inkscape:deskcolor="#d1d1d1"
     inkscape:document-units="pt"
     inkscape:zoom="1.2488333"
     inkscape:cx="139.33005"
     inkscape:cy="203.38984"
     inkscape:window-width="1920"
     inkscape:window-height="1147"
     inkscape:window-x="0"
     inkscape:window-y="25"
     inkscape:window-maximized="1"
     inkscape:current-layer="svg28" />
  <g
     id="g28"
     transform="translate(-16.137096,8.9178691)">
    <path
       stroke-width="12.7559"
       stroke-linecap="round"
       stroke-miterlimit="4"
       stroke-linejoin="miter"
       fill="none"
       stroke="#3672b3"
       d="m 41.472379,59.011344 c 0,0 0,52.499996 22.5,52.499996 22.5,0 22.5,-52.499996 45.000001,-52.499996 22.5,0 22.5,52.499996 22.5,52.499996"
       id="path1" />
    <path
       stroke-width="12.7559"
       stroke-linecap="round"
       stroke-miterlimit="4"
       stroke-linejoin="miter"
       fill="none"
       stroke="#3672b3"
       d="m 131.47238,111.51134 c 0,0 -3.75,-26.249996 -26.25,-26.249996"
       id="path2" />
    <path
       stroke-width="12.7559"
       stroke-linecap="round"
       stroke-miterlimit="4"
       stroke-linejoin="miter"
       fill="none"
       stroke="#45ac51"
       d="m 192.03438,103.81934 c -10.25,10.254 -26.871,10.254 -37.125,0 -10.25,-10.249996 -10.25,-26.870996 0,-37.120996 10.254,-10.25 26.875,-10.25 37.125,0"
       id="path3" />
    <path
       d="m 179.85038,85.261344 c 0,3.519 -2.855,6.375 -6.378,6.375 -3.524,0 -6.379,-2.856 -6.379,-6.375 0,-3.524 2.855,-6.379 6.379,-6.379 3.523,0 6.378,2.855 6.378,6.379 z m 0,0"
       fill="#3672b3"
       fill-rule="evenodd"
       id="path4" />
    <path
       stroke-width="1.41732"
       stroke-linecap="round"
       stroke-miterlimit="4"
       stroke-linejoin="miter"
       fill="none"
       stroke="#3672b3"
       d="m 51.132379,127.49134 c 0.257,0.125 0.457,0.293 0.593,0.5 0.145,0.211 0.219,0.446 0.219,0.703 0,0.18 -0.055,0.368 -0.156,0.563 l -6.359,13.422 c -0.293,0.656 -0.75,0.984 -1.375,0.984 -0.344,0 -0.625,-0.07 -0.844,-0.219 -0.219,-0.156 -0.418,-0.41 -0.594,-0.765 l -6.359,-13.422 c -0.086,-0.156 -0.125,-0.332 -0.125,-0.531 0,-0.539 0.281,-0.953 0.843,-1.235 0.176,-0.093 0.383,-0.14 0.625,-0.14 0.239,0 0.469,0.07 0.688,0.203 0.219,0.125 0.391,0.308 0.516,0.547 l 5.218,11.25 5.157,-11.25 c 0.125,-0.239 0.3,-0.422 0.531,-0.547 0.226,-0.133 0.472,-0.203 0.734,-0.203 0.258,0 0.488,0.047 0.688,0.14 z m 0,0"
       id="path5"
       style="fill:#3672b3;fill-opacity:1" />
    <path
       stroke-width="1.41732"
       stroke-linecap="round"
       stroke-miterlimit="4"
       stroke-linejoin="miter"
       fill="none"
       stroke="#3672b3"
       d="m 56.800379,143.69434 c -0.438,0 -0.805,-0.144 -1.094,-0.437 -0.293,-0.289 -0.438,-0.656 -0.438,-1.094 v -13.344 c 0,-0.457 0.145,-0.828 0.438,-1.109 0.289,-0.281 0.656,-0.422 1.094,-0.422 0.457,0 0.828,0.141 1.109,0.422 0.281,0.281 0.422,0.652 0.422,1.109 v 13.344 c 0,0.438 -0.141,0.805 -0.422,1.094 -0.281,0.293 -0.652,0.437 -1.109,0.437 z m 0,-19.078 c -0.543,0 -1.012,-0.191 -1.407,-0.578 -0.386,-0.394 -0.578,-0.863 -0.578,-1.406 0,-0.539 0.192,-1.004 0.578,-1.391 0.395,-0.394 0.864,-0.593 1.407,-0.593 0.539,0 1.004,0.199 1.39,0.593 0.395,0.387 0.594,0.852 0.594,1.391 0,0.543 -0.199,1.012 -0.594,1.406 -0.386,0.387 -0.851,0.578 -1.39,0.578 z m 0,0"
       id="path6"
       style="fill:#3672b3;fill-opacity:1" />
    <path
       stroke-width="1.41732"
       stroke-linecap="round"
       stroke-miterlimit="4"
       stroke-linejoin="miter"
       fill="none"
       stroke="#3672b3"
       d="m 70.022379,143.81934 c -1.367,0 -2.648,-0.207 -3.843,-0.625 -1.2,-0.425 -2.137,-0.976 -2.813,-1.656 -0.262,-0.258 -0.391,-0.57 -0.391,-0.937 0,-0.477 0.196,-0.867 0.594,-1.172 0.383,-0.281 0.735,-0.422 1.047,-0.422 0.406,0 0.785,0.184 1.141,0.547 0.382,0.418 0.957,0.781 1.718,1.094 0.758,0.312 1.567,0.468 2.422,0.468 1.145,0 2.032,-0.187 2.657,-0.562 0.632,-0.383 0.953,-0.899 0.953,-1.547 0,-0.613 -0.313,-1.125 -0.938,-1.531 -0.617,-0.414 -1.668,-0.766 -3.156,-1.047 -3.836,-0.738 -5.75,-2.317 -5.75,-4.735 0,-0.976 0.285,-1.804 0.859,-2.484 0.582,-0.687 1.344,-1.195 2.282,-1.531 0.945,-0.344 1.945,-0.516 3,-0.516 1.3,0 2.468,0.215 3.5,0.641 1.031,0.418 1.847,0.996 2.453,1.734 0.257,0.313 0.39,0.633 0.39,0.953 0,0.344 -0.172,0.657 -0.515,0.938 -0.219,0.156 -0.5,0.234 -0.844,0.234 -0.524,0 -0.992,-0.187 -1.406,-0.562 -0.5,-0.469 -1.032,-0.797 -1.594,-0.985 -0.563,-0.187 -1.242,-0.281 -2.031,-0.281 -0.93,0 -1.688,0.156 -2.282,0.469 -0.586,0.305 -0.875,0.734 -0.875,1.297 0,0.406 0.098,0.746 0.297,1.015 0.196,0.262 0.578,0.512 1.141,0.75 0.562,0.231 1.375,0.453 2.437,0.672 2.176,0.438 3.719,1.047 4.625,1.828 0.914,0.782 1.375,1.793 1.375,3.032 0,0.918 -0.25,1.75 -0.75,2.5 -0.5,0.75 -1.242,1.343 -2.218,1.781 -0.969,0.43 -2.133,0.64 -3.485,0.64 z m 0,0"
       id="path7"
       style="fill:#3672b3;fill-opacity:1" />
    <path
       stroke-width="1.41732"
       stroke-linecap="round"
       stroke-miterlimit="4"
       stroke-linejoin="miter"
       fill="none"
       stroke="#3672b3"
       d="m 93.874379,127.25734 c 0.457,0 0.828,0.141 1.109,0.422 0.281,0.281 0.422,0.652 0.422,1.109 v 13.375 c 0,0.438 -0.141,0.805 -0.422,1.094 -0.281,0.293 -0.652,0.437 -1.109,0.437 -0.449,0 -0.82,-0.144 -1.11,-0.437 -0.281,-0.289 -0.421,-0.656 -0.421,-1.094 v -0.328 c -0.649,0.637 -1.414,1.133 -2.297,1.484 -0.875,0.356 -1.813,0.532 -2.813,0.532 -1.375,0 -2.617,-0.301 -3.719,-0.907 -1.093,-0.601 -1.953,-1.476 -2.578,-2.625 -0.617,-1.144 -0.922,-2.531 -0.922,-4.156 v -7.375 c 0,-0.437 0.141,-0.801 0.422,-1.094 0.289,-0.289 0.66,-0.437 1.11,-0.437 0.437,0 0.8,0.148 1.093,0.437 0.29,0.293 0.438,0.657 0.438,1.094 v 7.375 c 0,1.625 0.43,2.856 1.297,3.688 0.875,0.824 2.031,1.234 3.469,1.234 0.832,0 1.593,-0.164 2.281,-0.5 0.695,-0.344 1.238,-0.805 1.625,-1.391 0.394,-0.582 0.594,-1.234 0.594,-1.953 v -8.453 c 0,-0.457 0.14,-0.828 0.421,-1.109 0.29,-0.281 0.661,-0.422 1.11,-0.422 z m 0,0"
       id="path8"
       style="fill:#3672b3;fill-opacity:1" />
    <path
       stroke-width="1.41732"
       stroke-linecap="round"
       stroke-miterlimit="4"
       stroke-linejoin="miter"
       fill="none"
       stroke="#3672b3"
       d="m 108.22938,127.16334 c 1.539,0 2.938,0.367 4.188,1.094 1.25,0.73 2.238,1.73 2.969,3 0.726,1.273 1.093,2.687 1.093,4.25 v 6.687 c 0,0.438 -0.148,0.805 -0.437,1.094 -0.293,0.293 -0.656,0.438 -1.094,0.438 -0.437,0 -0.805,-0.145 -1.094,-0.438 -0.293,-0.289 -0.437,-0.656 -0.437,-1.094 v -1.109 c -0.699,0.867 -1.547,1.539 -2.547,2.016 -1,0.48 -2.078,0.718 -3.234,0.718 -1.45,0 -2.758,-0.359 -3.922,-1.078 -1.168,-0.726 -2.09,-1.722 -2.766,-2.984 -0.668,-1.27 -1.000001,-2.688 -1.000001,-4.25 0,-1.563 0.359001,-2.977 1.078001,-4.25 0.719,-1.27 1.711,-2.27 2.985,-3 1.269,-0.727 2.675,-1.094 4.218,-1.094 z m 0,13.953 c 1,0 1.899,-0.242 2.703,-0.734 0.813,-0.488 1.446,-1.156 1.907,-2 0.468,-0.852 0.703,-1.813 0.703,-2.875 0,-1.063 -0.235,-2.02 -0.703,-2.875 -0.461,-0.863 -1.094,-1.539 -1.907,-2.031 -0.804,-0.489 -1.703,-0.735 -2.703,-0.735 -1,0 -1.906,0.246 -2.718,0.735 -0.813,0.492 -1.454,1.168 -1.922,2.031 -0.469,0.855 -0.703,1.812 -0.703,2.875 0,1.062 0.234,2.023 0.703,2.875 0.468,0.844 1.109,1.512 1.922,2 0.812,0.492 1.718,0.734 2.718,0.734 z m 0,0"
       id="path9"
       style="fill:#3672b3;fill-opacity:1" />
    <path
       stroke-width="1.41732"
       stroke-linecap="round"
       stroke-miterlimit="4"
       stroke-linejoin="miter"
       fill="none"
       stroke="#3672b3"
       d="m 124.95638,143.69434 c -0.856,0 -1.633,-0.234 -2.328,-0.703 -0.688,-0.468 -1.227,-1.125 -1.61,-1.968 -0.375,-0.852 -0.562,-1.813 -0.562,-2.875 v -16.391 c 0,-0.438 0.14,-0.797 0.422,-1.078 0.281,-0.281 0.64,-0.422 1.078,-0.422 0.445,0 0.805,0.141 1.078,0.422 0.281,0.281 0.422,0.64 0.422,1.078 v 16.391 c 0,0.742 0.14,1.351 0.422,1.828 0.281,0.48 0.64,0.718 1.078,0.718 h 0.75 c 0.406,0 0.734,0.141 0.984,0.422 0.25,0.282 0.375,0.641 0.375,1.078 0,0.438 -0.195,0.797 -0.578,1.079 -0.375,0.281 -0.867,0.421 -1.469,0.421 z m 0,0"
       id="path10"
       style="fill:#3672b3;fill-opacity:1" />
    <path
       stroke-width="1.41732"
       stroke-linecap="round"
       stroke-miterlimit="4"
       stroke-linejoin="miter"
       fill="none"
       stroke="#3672b3"
       d="m 156.75338,141.41334 c 0.363,0.367 0.547,0.696 0.547,0.985 0,0.261 -0.141,0.531 -0.422,0.812 -0.324,0.324 -0.649,0.484 -0.969,0.484 -0.281,0 -0.602,-0.16 -0.953,-0.484 l -3.297,-3.297 -0.156,0.188 c -1.117,1.273 -2.293,2.261 -3.531,2.968 -1.231,0.696 -2.594,1.047 -4.094,1.047 -1.918,0 -3.461,-0.519 -4.625,-1.562 -1.157,-1.039 -1.735,-2.473 -1.735,-4.297 0,-1.25 0.411,-2.41 1.235,-3.484 0.82,-1.071 2.082,-2.286 3.781,-3.641 l 0.188,-0.125 -1.563,-1.563 c -1.406,-1.437 -2.109,-2.988 -2.109,-4.656 0,-0.937 0.238,-1.797 0.718,-2.578 0.477,-0.781 1.141,-1.391 1.985,-1.828 0.843,-0.438 1.785,-0.656 2.828,-0.656 1.051,0 2,0.23 2.844,0.687 0.843,0.461 1.504,1.094 1.984,1.906 0.477,0.813 0.719,1.711 0.719,2.688 -0.024,1.137 -0.321,2.141 -0.891,3.016 -0.574,0.867 -1.547,1.851 -2.922,2.953 l 5.407,5.406 2.39,-2.563 c 0.383,-0.414 0.723,-0.625 1.016,-0.625 0.226,0 0.461,0.122 0.703,0.36 0.312,0.305 0.469,0.621 0.469,0.953 0,0.344 -0.141,0.668 -0.422,0.969 l -2.453,2.609 z m -12.063,-12.031 0.328,-0.234 c 0.977,-0.782 1.641,-1.485 1.985,-2.11 0.343,-0.633 0.523,-1.332 0.547,-2.094 0,-0.8 -0.266,-1.468 -0.797,-2 -0.531,-0.539 -1.258,-0.812 -2.172,-0.812 -0.867,0 -1.574,0.258 -2.125,0.766 -0.555,0.5 -0.828,1.117 -0.828,1.843 0,1.055 0.492,2.071 1.484,3.047 z m 5.25,8.828 -5.64,-5.609 -0.391,0.297 c -1.156,0.918 -2.043,1.796 -2.656,2.64 -0.606,0.836 -0.907,1.703 -0.907,2.61 0,1.117 0.301,1.961 0.907,2.531 0.613,0.574 1.488,0.859 2.625,0.859 1.125,0 2.129,-0.254 3.015,-0.765 0.895,-0.508 1.844,-1.286 2.844,-2.329 z m 0,0"
       id="path11"
       style="fill:#3672b3;fill-opacity:1" />
    <path
       stroke-width="1.41732"
       stroke-linecap="round"
       stroke-miterlimit="4"
       stroke-linejoin="miter"
       fill="none"
       stroke="#3672b3"
       d="m 177.01838,127.16334 c 1.539,0 2.938,0.367 4.188,1.094 1.25,0.73 2.238,1.73 2.969,3 0.726,1.273 1.093,2.687 1.093,4.25 v 6.687 c 0,0.438 -0.148,0.805 -0.437,1.094 -0.293,0.293 -0.656,0.438 -1.094,0.438 -0.437,0 -0.805,-0.145 -1.094,-0.438 -0.293,-0.289 -0.437,-0.656 -0.437,-1.094 v -1.109 c -0.699,0.867 -1.547,1.539 -2.547,2.016 -1,0.48 -2.078,0.718 -3.234,0.718 -1.45,0 -2.758,-0.359 -3.922,-1.078 -1.168,-0.726 -2.09,-1.722 -2.766,-2.984 -0.668,-1.27 -1,-2.688 -1,-4.25 0,-1.563 0.359,-2.977 1.078,-4.25 0.719,-1.27 1.711,-2.27 2.985,-3 1.269,-0.727 2.675,-1.094 4.218,-1.094 z m 0,13.953 c 1,0 1.899,-0.242 2.704,-0.734 0.812,-0.488 1.445,-1.156 1.906,-2 0.468,-0.852 0.703,-1.813 0.703,-2.875 0,-1.063 -0.235,-2.02 -0.703,-2.875 -0.461,-0.863 -1.094,-1.539 -1.906,-2.031 -0.805,-0.489 -1.704,-0.735 -2.704,-0.735 -1,0 -1.906,0.246 -2.718,0.735 -0.813,0.492 -1.454,1.168 -1.922,2.031 -0.469,0.855 -0.703,1.812 -0.703,2.875 0,1.062 0.234,2.023 0.703,2.875 0.468,0.844 1.109,1.512 1.922,2 0.812,0.492 1.718,0.734 2.718,0.734 z m 0,0"
       id="path12"
       style="fill:#3672b3;fill-opacity:1" />
    <path
       stroke-width="1.41732"
       stroke-linecap="round"
       stroke-miterlimit="4"
       stroke-linejoin="miter"
       fill="none"
       stroke="#3672b3"
       d="m 198.01138,127.13234 c 1.382,0 2.625,0.305 3.718,0.906 1.102,0.594 1.961,1.469 2.578,2.625 0.625,1.149 0.938,2.531 0.938,4.156 v 7.375 c 0,0.438 -0.149,0.805 -0.438,1.094 -0.293,0.293 -0.656,0.438 -1.093,0.438 -0.438,0 -0.805,-0.145 -1.094,-0.438 -0.293,-0.289 -0.438,-0.656 -0.438,-1.094 v -7.375 c 0,-1.625 -0.437,-2.847 -1.312,-3.671 -0.867,-0.832 -2.016,-1.25 -3.453,-1.25 -0.844,0 -1.61,0.171 -2.297,0.515 -0.688,0.336 -1.231,0.793 -1.625,1.375 -0.387,0.574 -0.578,1.227 -0.578,1.953 v 8.453 c 0,0.438 -0.141,0.805 -0.422,1.094 -0.281,0.293 -0.652,0.438 -1.109,0.438 -0.45,0 -0.821,-0.145 -1.11,-0.438 -0.281,-0.289 -0.422,-0.656 -0.422,-1.094 v -13.375 c 0,-0.457 0.141,-0.828 0.422,-1.109 0.289,-0.281 0.66,-0.422 1.11,-0.422 0.457,0 0.828,0.141 1.109,0.422 0.281,0.281 0.422,0.652 0.422,1.109 v 0.329 c 0.633,-0.645 1.39,-1.141 2.265,-1.485 0.883,-0.351 1.829,-0.531 2.829,-0.531 z m 0,0"
       id="path13"
       style="fill:#3672b3;fill-opacity:1" />
    <path
       stroke-width="1.41732"
       stroke-linecap="round"
       stroke-miterlimit="4"
       stroke-linejoin="miter"
       fill="none"
       stroke="#3672b3"
       d="m 217.74138,127.16334 c 1.539,0 2.938,0.367 4.188,1.094 1.25,0.73 2.238,1.73 2.968,3 0.727,1.273 1.094,2.687 1.094,4.25 v 6.687 c 0,0.438 -0.148,0.805 -0.437,1.094 -0.293,0.293 -0.657,0.438 -1.094,0.438 -0.438,0 -0.805,-0.145 -1.094,-0.438 -0.293,-0.289 -0.437,-0.656 -0.437,-1.094 v -1.109 c -0.7,0.867 -1.547,1.539 -2.547,2.016 -1,0.48 -2.078,0.718 -3.235,0.718 -1.449,0 -2.758,-0.359 -3.922,-1.078 -1.168,-0.726 -2.089,-1.722 -2.765,-2.984 -0.668,-1.27 -1,-2.688 -1,-4.25 0,-1.563 0.359,-2.977 1.078,-4.25 0.719,-1.27 1.711,-2.27 2.984,-3 1.27,-0.727 2.676,-1.094 4.219,-1.094 z m 0,13.953 c 1,0 1.898,-0.242 2.703,-0.734 0.813,-0.488 1.445,-1.156 1.906,-2 0.469,-0.852 0.704,-1.813 0.704,-2.875 0,-1.063 -0.235,-2.02 -0.704,-2.875 -0.461,-0.863 -1.093,-1.539 -1.906,-2.031 -0.805,-0.489 -1.703,-0.735 -2.703,-0.735 -1,0 -1.906,0.246 -2.719,0.735 -0.812,0.492 -1.453,1.168 -1.922,2.031 -0.468,0.855 -0.703,1.812 -0.703,2.875 0,1.062 0.235,2.023 0.703,2.875 0.469,0.844 1.11,1.512 1.922,2 0.813,0.492 1.719,0.734 2.719,0.734 z m 0,0"
       id="path14"
       style="fill:#3672b3;fill-opacity:1" />
    <path
       stroke-width="1.41732"
       stroke-linecap="round"
       stroke-miterlimit="4"
       stroke-linejoin="miter"
       fill="none"
       stroke="#3672b3"
       d="m 234.46838,143.69434 c -0.856,0 -1.633,-0.234 -2.329,-0.703 -0.687,-0.468 -1.226,-1.125 -1.609,-1.968 -0.375,-0.852 -0.562,-1.813 -0.562,-2.875 v -16.391 c 0,-0.438 0.14,-0.797 0.421,-1.078 0.282,-0.281 0.641,-0.422 1.079,-0.422 0.445,0 0.804,0.141 1.078,0.422 0.281,0.281 0.422,0.64 0.422,1.078 v 16.391 c 0,0.742 0.14,1.351 0.421,1.828 0.282,0.48 0.641,0.718 1.079,0.718 h 0.75 c 0.406,0 0.734,0.141 0.984,0.422 0.25,0.282 0.375,0.641 0.375,1.078 0,0.438 -0.195,0.797 -0.578,1.079 -0.375,0.281 -0.867,0.421 -1.469,0.421 z m 0,0"
       id="path15"
       style="fill:#3672b3;fill-opacity:1" />
    <path
       stroke-width="1.41732"
       stroke-linecap="round"
       stroke-miterlimit="4"
       stroke-linejoin="miter"
       fill="none"
       stroke="#3672b3"
       d="m 252.13238,127.42934 c 0.625,0.242 0.937,0.633 0.937,1.172 0,0.199 -0.062,0.437 -0.187,0.718 l -9.172,20.641 c -0.242,0.625 -0.633,0.938 -1.172,0.938 -0.199,0 -0.438,-0.063 -0.719,-0.188 -0.605,-0.262 -0.906,-0.652 -0.906,-1.172 0,-0.242 0.062,-0.48 0.187,-0.719 l 3,-6.75 -6.75,-12.812 c -0.105,-0.176 -0.156,-0.383 -0.156,-0.625 0,-0.258 0.078,-0.5 0.235,-0.719 0.164,-0.219 0.378,-0.39 0.64,-0.515 0.176,-0.071 0.375,-0.11 0.594,-0.11 0.562,0 0.984,0.281 1.266,0.844 l 5.484,10.906 4.828,-10.89 c 0.258,-0.571 0.648,-0.86 1.172,-0.86 0.258,0 0.5,0.047 0.719,0.141 z m 0,0"
       id="path16"
       style="fill:#3672b3;fill-opacity:1" />
    <path
       stroke-width="1.41732"
       stroke-linecap="round"
       stroke-miterlimit="4"
       stroke-linejoin="miter"
       fill="none"
       stroke="#3672b3"
       d="m 262.75738,140.69434 c 0.363,0 0.672,0.141 0.922,0.422 0.25,0.282 0.375,0.641 0.375,1.078 0,0.438 -0.168,0.797 -0.5,1.079 -0.336,0.281 -0.762,0.421 -1.282,0.421 h -0.531 c -0.98,0 -1.875,-0.253 -2.687,-0.765 -0.813,-0.508 -1.45,-1.203 -1.907,-2.078 -0.461,-0.883 -0.687,-1.875 -0.687,-2.969 v -7.422 h -1.375 c -0.43,0 -0.774,-0.117 -1.031,-0.359 -0.262,-0.239 -0.391,-0.535 -0.391,-0.891 0,-0.406 0.129,-0.726 0.391,-0.969 0.257,-0.238 0.601,-0.359 1.031,-0.359 h 1.375 v -4.313 c 0,-0.445 0.14,-0.804 0.422,-1.078 0.281,-0.281 0.64,-0.422 1.078,-0.422 0.437,0 0.797,0.141 1.078,0.422 0.281,0.274 0.422,0.633 0.422,1.078 v 4.313 h 2.547 c 0.414,0 0.754,0.121 1.015,0.359 0.258,0.243 0.391,0.563 0.391,0.969 0,0.356 -0.133,0.652 -0.391,0.891 -0.261,0.242 -0.601,0.359 -1.015,0.359 h -2.547 v 7.422 c 0,0.793 0.219,1.461 0.656,2 0.438,0.543 0.977,0.812 1.625,0.812 z m 0,0"
       id="path17"
       style="fill:#3672b3;fill-opacity:1" />
    <path
       stroke-width="1.41732"
       stroke-linecap="round"
       stroke-miterlimit="4"
       stroke-linejoin="miter"
       fill="none"
       stroke="#3672b3"
       d="m 269.61238,143.69434 c -0.437,0 -0.805,-0.144 -1.094,-0.437 -0.293,-0.289 -0.437,-0.656 -0.437,-1.094 v -13.344 c 0,-0.457 0.144,-0.828 0.437,-1.109 0.289,-0.281 0.657,-0.422 1.094,-0.422 0.457,0 0.828,0.141 1.11,0.422 0.281,0.281 0.421,0.652 0.421,1.109 v 13.344 c 0,0.438 -0.14,0.805 -0.421,1.094 -0.282,0.293 -0.653,0.437 -1.11,0.437 z m 0,-19.078 c -0.543,0 -1.012,-0.191 -1.406,-0.578 -0.387,-0.394 -0.578,-0.863 -0.578,-1.406 0,-0.539 0.191,-1.004 0.578,-1.391 0.394,-0.394 0.863,-0.593 1.406,-0.593 0.539,0 1.004,0.199 1.391,0.593 0.394,0.387 0.593,0.852 0.593,1.391 0,0.543 -0.199,1.012 -0.593,1.406 -0.387,0.387 -0.852,0.578 -1.391,0.578 z m 0,0"
       id="path18"
       style="fill:#3672b3;fill-opacity:1" />
    <path
       stroke-width="1.41732"
       stroke-linecap="round"
       stroke-miterlimit="4"
       stroke-linejoin="miter"
       fill="none"
       stroke="#3672b3"
       d="m 284.30438,143.81934 c -1.586,0 -3.008,-0.359 -4.266,-1.078 -1.262,-0.726 -2.246,-1.722 -2.953,-2.984 -0.711,-1.27 -1.063,-2.688 -1.063,-4.25 0,-1.602 0.344,-3.039 1.032,-4.313 0.695,-1.269 1.664,-2.257 2.906,-2.968 1.238,-0.707 2.633,-1.063 4.187,-1.063 2.364,0 4.328,0.903 5.891,2.703 0.195,0.219 0.297,0.481 0.297,0.782 0,0.437 -0.219,0.808 -0.656,1.109 -0.211,0.137 -0.446,0.203 -0.704,0.203 -0.461,0 -0.843,-0.176 -1.156,-0.531 -0.5,-0.539 -1.047,-0.938 -1.64,-1.188 -0.594,-0.25 -1.274,-0.375 -2.032,-0.375 -1.531,0 -2.781,0.516 -3.75,1.547 -0.961,1.031 -1.437,2.399 -1.437,4.094 0,1.086 0.222,2.055 0.672,2.906 0.457,0.844 1.086,1.508 1.89,1.985 0.813,0.48 1.739,0.718 2.782,0.718 1.363,0 2.46,-0.347 3.296,-1.047 0.383,-0.281 0.754,-0.421 1.11,-0.421 0.281,0 0.539,0.089 0.781,0.265 0.383,0.324 0.578,0.684 0.578,1.078 0,0.305 -0.121,0.575 -0.359,0.813 -1.449,1.344 -3.25,2.015 -5.406,2.015 z m 0,0"
       id="path19"
       style="fill:#3672b3;fill-opacity:1" />
    <text
       fill="#2961a0"
       xml:space="preserve"
       font-size="30px"
       font-family="Comfortaa"
       font-weight="bold"
       id="text19"
       x="19.53438"
       y="44.589344"><tspan
         y="172.19496"
         x="35.802879 44.59288"
         id="tspan19">  </tspan></text>
    <path
       stroke-width="1.41732"
       stroke-linecap="round"
       stroke-miterlimit="4"
       stroke-linejoin="miter"
       fill="none"
       stroke="#45ac51"
       d="m 63.522379,172.31934 c -1.586,0 -3.008,-0.359 -4.265,-1.078 -1.262,-0.726 -2.246,-1.722 -2.953,-2.984 -0.711,-1.27 -1.063,-2.688 -1.063,-4.25 0,-1.602 0.344,-3.039 1.031,-4.313 0.696,-1.269 1.664,-2.257 2.907,-2.968 1.238,-0.707 2.632,-1.063 4.187,-1.063 2.363,0 4.328,0.903 5.891,2.703 0.195,0.219 0.297,0.481 0.297,0.782 0,0.437 -0.219,0.808 -0.657,1.109 -0.211,0.137 -0.445,0.203 -0.703,0.203 -0.461,0 -0.844,-0.176 -1.156,-0.531 -0.5,-0.539 -1.047,-0.938 -1.641,-1.188 -0.593,-0.25 -1.273,-0.375 -2.031,-0.375 -1.531,0 -2.781,0.516 -3.75,1.547 -0.961,1.031 -1.437,2.399 -1.437,4.094 0,1.086 0.222,2.055 0.671,2.906 0.457,0.844 1.086,1.508 1.891,1.985 0.813,0.48 1.738,0.718 2.781,0.718 1.364,0 2.461,-0.347 3.297,-1.047 0.383,-0.281 0.754,-0.421 1.11,-0.421 0.281,0 0.539,0.089 0.781,0.265 0.383,0.324 0.578,0.684 0.578,1.078 0,0.305 -0.121,0.575 -0.359,0.813 -1.45,1.344 -3.25,2.015 -5.407,2.015 z m 0,0"
       id="path20"
       style="fill:#45ac51;fill-opacity:1" />
    <path
       stroke-width="1.41732"
       stroke-linecap="round"
       stroke-miterlimit="4"
       stroke-linejoin="miter"
       fill="none"
       stroke="#45ac51"
       d="m 81.569379,172.31934 c -1.605,0 -3.039,-0.351 -4.297,-1.062 -1.261,-0.719 -2.242,-1.707 -2.937,-2.969 -0.699,-1.258 -1.047,-2.687 -1.047,-4.281 0,-1.625 0.348,-3.066 1.047,-4.328 0.695,-1.258 1.676,-2.242 2.937,-2.953 1.258,-0.707 2.692,-1.063 4.297,-1.063 1.582,0 3,0.356 4.25,1.063 1.25,0.711 2.227,1.695 2.938,2.953 0.707,1.262 1.062,2.703 1.062,4.328 0,1.594 -0.351,3.023 -1.047,4.281 -0.699,1.262 -1.672,2.25 -2.922,2.969 -1.25,0.711 -2.679,1.062 -4.281,1.062 z m 0,-2.703 c 1.02,0 1.93,-0.238 2.735,-0.718 0.812,-0.477 1.441,-1.141 1.89,-1.985 0.457,-0.851 0.688,-1.82 0.688,-2.906 0,-1.082 -0.231,-2.051 -0.688,-2.906 -0.449,-0.864 -1.078,-1.535 -1.89,-2.016 -0.805,-0.476 -1.715,-0.719 -2.735,-0.719 -1.023,0 -1.937,0.243 -2.75,0.719 -0.805,0.481 -1.437,1.152 -1.906,2.016 -0.461,0.855 -0.688,1.824 -0.688,2.906 0,1.086 0.227,2.055 0.688,2.906 0.469,0.844 1.101,1.508 1.906,1.985 0.813,0.48 1.727,0.718 2.75,0.718 z m 0,0"
       id="path21"
       style="fill:#45ac51;fill-opacity:1" />
    <path
       stroke-width="1.41732"
       stroke-linecap="round"
       stroke-miterlimit="4"
       stroke-linejoin="miter"
       fill="none"
       stroke="#45ac51"
       d="m 111.65538,155.63234 c 1.738,0 3.141,0.574 4.203,1.719 1.071,1.136 1.61,2.726 1.61,4.765 v 8.578 c 0,0.438 -0.141,0.805 -0.422,1.094 -0.274,0.293 -0.641,0.438 -1.11,0.438 -0.437,0 -0.804,-0.145 -1.093,-0.438 -0.293,-0.289 -0.438,-0.656 -0.438,-1.094 v -8.578 c 0,-1.218 -0.309,-2.14 -0.922,-2.765 -0.605,-0.633 -1.418,-0.953 -2.437,-0.953 -1.032,0 -1.887,0.359 -2.563,1.078 -0.668,0.718 -1,1.64 -1,2.765 v 8.453 c 0,0.438 -0.14,0.805 -0.422,1.094 -0.281,0.293 -0.652,0.438 -1.109,0.438 -0.438,0 -0.805,-0.145 -1.094,-0.438 -0.293,-0.289 -0.437,-0.656 -0.437,-1.094 v -8.578 c 0,-1.218 -0.309,-2.14 -0.922,-2.765 -0.606,-0.633 -1.418,-0.953 -2.438,-0.953 -1.062001,0 -1.929001,0.359 -2.593001,1.078 -0.668,0.718 -1,1.64 -1,2.765 v 8.453 c 0,0.438 -0.141,0.805 -0.422,1.094 -0.282,0.293 -0.653,0.438 -1.11,0.438 -0.449,0 -0.82,-0.145 -1.109,-0.438 -0.281,-0.289 -0.422,-0.656 -0.422,-1.094 v -13.343 c 0,-0.469 0.141,-0.836 0.422,-1.11 0.289,-0.281 0.66,-0.422 1.109,-0.422 0.438,0 0.797,0.137 1.078,0.407 0.282,0.273 0.43,0.625 0.454,1.062 0.519,-0.519 1.14,-0.926 1.859,-1.219 0.719001,-0.289 1.492001,-0.437 2.328001,-0.437 1.02,0 1.938,0.211 2.75,0.625 0.813,0.406 1.477,0.992 2,1.75 0.594,-0.738 1.336,-1.316 2.234,-1.734 0.907,-0.426 1.911,-0.641 3.016,-0.641 z m 0,0"
       id="path22"
       style="fill:#45ac51;fill-opacity:1" />
    <path
       stroke-width="1.41732"
       stroke-linecap="round"
       stroke-miterlimit="4"
       stroke-linejoin="miter"
       fill="none"
       stroke="#45ac51"
       d="m 130.78038,155.66334 c 1.539,0 2.942,0.367 4.203,1.094 1.27,0.73 2.266,1.73 2.985,3 0.726,1.273 1.093,2.687 1.093,4.25 0,1.562 -0.339,2.98 -1.015,4.25 -0.668,1.262 -1.59,2.258 -2.766,2.984 -1.168,0.719 -2.469,1.078 -3.906,1.078 -1.156,0 -2.235,-0.238 -3.235,-0.718 -1,-0.477 -1.851,-1.149 -2.546,-2.016 v 8.094 c 0,0.469 -0.141,0.836 -0.422,1.109 -0.282,0.281 -0.653,0.422 -1.11,0.422 -0.449,0 -0.82,-0.141 -1.109,-0.422 -0.281,-0.273 -0.422,-0.64 -0.422,-1.109 v -13.672 c 0,-1.563 0.363,-2.977 1.094,-4.25 0.726,-1.27 1.719,-2.27 2.969,-3 1.25,-0.727 2.644,-1.094 4.187,-1.094 z m 0,13.953 c 1,0 1.899,-0.242 2.703,-0.734 0.813,-0.488 1.453,-1.156 1.922,-2 0.477,-0.852 0.719,-1.813 0.719,-2.875 0,-1.063 -0.242,-2.02 -0.719,-2.875 -0.469,-0.863 -1.109,-1.539 -1.922,-2.031 -0.804,-0.489 -1.703,-0.735 -2.703,-0.735 -1,0 -1.906,0.246 -2.719,0.735 -0.812,0.492 -1.449,1.168 -1.906,2.031 -0.461,0.855 -0.687,1.812 -0.687,2.875 0,1.062 0.226,2.023 0.687,2.875 0.457,0.844 1.094,1.512 1.906,2 0.813,0.492 1.719,0.734 2.719,0.734 z m 0,0"
       id="path23"
       style="fill:#45ac51;fill-opacity:1" />
    <path
       stroke-width="1.41732"
       stroke-linecap="round"
       stroke-miterlimit="4"
       stroke-linejoin="miter"
       fill="none"
       stroke="#45ac51"
       d="m 157.15538,155.75734 c 0.457,0 0.828,0.141 1.109,0.422 0.282,0.281 0.422,0.652 0.422,1.109 v 13.375 c 0,0.438 -0.14,0.805 -0.422,1.094 -0.281,0.293 -0.652,0.437 -1.109,0.437 -0.449,0 -0.82,-0.144 -1.109,-0.437 -0.282,-0.289 -0.422,-0.656 -0.422,-1.094 v -0.328 c -0.649,0.637 -1.414,1.133 -2.297,1.484 -0.875,0.356 -1.813,0.532 -2.813,0.532 -1.375,0 -2.617,-0.301 -3.718,-0.907 -1.094,-0.601 -1.953,-1.476 -2.578,-2.625 -0.618,-1.144 -0.922,-2.531 -0.922,-4.156 v -7.375 c 0,-0.437 0.14,-0.801 0.422,-1.094 0.289,-0.289 0.66,-0.437 1.109,-0.437 0.437,0 0.801,0.148 1.094,0.437 0.289,0.293 0.437,0.657 0.437,1.094 v 7.375 c 0,1.625 0.43,2.856 1.297,3.688 0.875,0.824 2.031,1.234 3.469,1.234 0.832,0 1.594,-0.164 2.281,-0.5 0.695,-0.344 1.238,-0.805 1.625,-1.391 0.395,-0.582 0.594,-1.234 0.594,-1.953 v -8.453 c 0,-0.457 0.14,-0.828 0.422,-1.109 0.289,-0.281 0.66,-0.422 1.109,-0.422 z m 0,0"
       id="path24"
       style="fill:#45ac51;fill-opacity:1" />
    <path
       stroke-width="1.41732"
       stroke-linecap="round"
       stroke-miterlimit="4"
       stroke-linejoin="miter"
       fill="none"
       stroke="#45ac51"
       d="m 171.05738,169.19434 c 0.364,0 0.672,0.141 0.922,0.422 0.25,0.282 0.375,0.641 0.375,1.078 0,0.438 -0.168,0.797 -0.5,1.079 -0.336,0.281 -0.761,0.421 -1.281,0.421 h -0.531 c -0.981,0 -1.875,-0.253 -2.688,-0.765 -0.812,-0.508 -1.449,-1.203 -1.906,-2.078 -0.461,-0.883 -0.687,-1.875 -0.687,-2.969 v -7.422 h -1.375 c -0.43,0 -0.774,-0.117 -1.032,-0.359 -0.261,-0.239 -0.39,-0.535 -0.39,-0.891 0,-0.406 0.129,-0.726 0.39,-0.969 0.258,-0.238 0.602,-0.359 1.032,-0.359 h 1.375 v -4.313 c 0,-0.445 0.14,-0.804 0.421,-1.078 0.282,-0.281 0.641,-0.422 1.079,-0.422 0.437,0 0.796,0.141 1.078,0.422 0.281,0.274 0.422,0.633 0.422,1.078 v 4.313 h 2.546 c 0.415,0 0.754,0.121 1.016,0.359 0.258,0.243 0.391,0.563 0.391,0.969 0,0.356 -0.133,0.652 -0.391,0.891 -0.262,0.242 -0.601,0.359 -1.016,0.359 h -2.546 v 7.422 c 0,0.793 0.218,1.461 0.656,2 0.437,0.543 0.976,0.812 1.625,0.812 z m 0,0"
       id="path25"
       style="fill:#45ac51;fill-opacity:1" />
    <path
       stroke-width="1.41732"
       stroke-linecap="round"
       stroke-miterlimit="4"
       stroke-linejoin="miter"
       fill="none"
       stroke="#45ac51"
       d="m 177.91338,172.19434 c -0.438,0 -0.805,-0.144 -1.094,-0.437 -0.293,-0.289 -0.437,-0.656 -0.437,-1.094 v -13.344 c 0,-0.457 0.144,-0.828 0.437,-1.109 0.289,-0.281 0.656,-0.422 1.094,-0.422 0.457,0 0.828,0.141 1.109,0.422 0.282,0.281 0.422,0.652 0.422,1.109 v 13.344 c 0,0.438 -0.14,0.805 -0.422,1.094 -0.281,0.293 -0.652,0.437 -1.109,0.437 z m 0,-19.078 c -0.543,0 -1.012,-0.191 -1.406,-0.578 -0.387,-0.394 -0.578,-0.863 -0.578,-1.406 0,-0.539 0.191,-1.004 0.578,-1.391 0.394,-0.394 0.863,-0.593 1.406,-0.593 0.539,0 1.004,0.199 1.391,0.593 0.394,0.387 0.593,0.852 0.593,1.391 0,0.543 -0.199,1.012 -0.593,1.406 -0.387,0.387 -0.852,0.578 -1.391,0.578 z m 0,0"
       id="path26"
       style="fill:#45ac51;fill-opacity:1" />
    <path
       stroke-width="1.41732"
       stroke-linecap="round"
       stroke-miterlimit="4"
       stroke-linejoin="miter"
       fill="none"
       stroke="#45ac51"
       d="m 193.32338,155.63234 c 1.383,0 2.625,0.305 3.719,0.906 1.101,0.594 1.961,1.469 2.578,2.625 0.625,1.149 0.937,2.531 0.937,4.156 v 7.375 c 0,0.438 -0.148,0.805 -0.437,1.094 -0.293,0.293 -0.656,0.438 -1.094,0.438 -0.437,0 -0.804,-0.145 -1.094,-0.438 -0.293,-0.289 -0.437,-0.656 -0.437,-1.094 v -7.375 c 0,-1.625 -0.438,-2.847 -1.313,-3.671 -0.867,-0.832 -2.015,-1.25 -3.453,-1.25 -0.843,0 -1.609,0.171 -2.297,0.515 -0.687,0.336 -1.23,0.793 -1.625,1.375 -0.386,0.574 -0.578,1.227 -0.578,1.953 v 8.453 c 0,0.438 -0.14,0.805 -0.422,1.094 -0.281,0.293 -0.652,0.438 -1.109,0.438 -0.449,0 -0.82,-0.145 -1.109,-0.438 -0.282,-0.289 -0.422,-0.656 -0.422,-1.094 v -13.375 c 0,-0.457 0.14,-0.828 0.422,-1.109 0.289,-0.281 0.66,-0.422 1.109,-0.422 0.457,0 0.828,0.141 1.109,0.422 0.282,0.281 0.422,0.652 0.422,1.109 v 0.329 c 0.633,-0.645 1.391,-1.141 2.266,-1.485 0.883,-0.351 1.828,-0.531 2.828,-0.531 z m 0,0"
       id="path27"
       style="fill:#45ac51;fill-opacity:1" />
    <path
       stroke-width="1.41732"
       stroke-linecap="round"
       stroke-miterlimit="4"
       stroke-linejoin="miter"
       fill="none"
       stroke="#45ac51"
       d="m 213.05438,155.66334 c 1.582,0 3,0.356 4.25,1.063 1.25,0.711 2.226,1.695 2.937,2.953 0.707,1.262 1.063,2.703 1.063,4.328 v 6.484 c 0,1.575 -0.352,3.008 -1.047,4.313 -0.7,1.301 -1.684,2.328 -2.953,3.078 -1.274,0.75 -2.711,1.125 -4.313,1.125 -1.437,0 -2.777,-0.289 -4.016,-0.859 -1.242,-0.575 -2.281,-1.387 -3.125,-2.438 -0.218,-0.281 -0.328,-0.562 -0.328,-0.844 0,-0.418 0.207,-0.777 0.625,-1.078 0.282,-0.187 0.563,-0.281 0.844,-0.281 0.5,0 0.91,0.211 1.234,0.641 0.539,0.695 1.219,1.226 2.032,1.593 0.82,0.375 1.754,0.563 2.797,0.563 0.976,0 1.867,-0.235 2.671,-0.703 0.801,-0.469 1.442,-1.164 1.922,-2.078 0.477,-0.907 0.719,-1.989 0.719,-3.25 v -1.469 c -0.625,1.105 -1.449,1.969 -2.469,2.594 -1.023,0.617 -2.168,0.921 -3.437,0.921 -1.492,0 -2.821,-0.351 -3.985,-1.062 -1.168,-0.719 -2.078,-1.707 -2.734,-2.969 -0.648,-1.258 -0.969,-2.687 -0.969,-4.281 0,-1.625 0.348,-3.066 1.047,-4.328 0.695,-1.258 1.676,-2.242 2.938,-2.953 1.257,-0.707 2.691,-1.063 4.297,-1.063 z m 0,13.953 c 1.019,0 1.929,-0.238 2.734,-0.718 0.812,-0.477 1.441,-1.141 1.891,-1.985 0.457,-0.851 0.687,-1.82 0.687,-2.906 0,-1.082 -0.23,-2.051 -0.687,-2.906 -0.45,-0.864 -1.079,-1.535 -1.891,-2.016 -0.805,-0.476 -1.715,-0.719 -2.734,-0.719 -1.024,0 -1.938,0.243 -2.75,0.719 -0.805,0.481 -1.438,1.152 -1.907,2.016 -0.461,0.855 -0.687,1.824 -0.687,2.906 0,1.086 0.226,2.055 0.687,2.906 0.469,0.844 1.102,1.508 1.907,1.985 0.812,0.48 1.726,0.718 2.75,0.718 z m 0,0"
       id="path28"
       style="fill:#45ac51;fill-opacity:1" />
  </g>
  <text
     xml:space="preserve"
     transform="scale(0.75)"
     id="text28"
     style="white-space:pre;shape-inside:url(#rect28);display:inline;fill:#45ac51;fill-opacity:1" />
  <path
     style="font-weight:600;font-size:53.3333px;font-family:'Antipasto Pro';-inkscape-font-specification:'Antipasto Pro Semi-Bold';white-space:pre;fill:#3672b3;stroke-width:0.75"
     d="m 127.44658,40.034373 c 0,-0.773333 0.14666,-1.493333 0.43999,-2.16 0.29334,-0.666666 0.68667,-1.246665 1.18,-1.739998 0.50667,-0.506667 1.09334,-0.9 1.76,-1.18 0.68,-0.293333 1.4,-0.439999 2.16,-0.439999 0.77333,0 1.49333,0.146666 2.16,0.439999 0.68,0.28 1.26667,0.673333 1.76,1.18 0.50667,0.493333 0.9,1.073332 1.18,1.739998 0.29333,0.666667 0.44,1.386667 0.44,2.16 0,0.759999 -0.14667,1.479999 -0.44,2.159998 -0.28,0.666666 -0.67333,1.253332 -1.18,1.759999 -0.49333,0.493333 -1.08,0.886666 -1.76,1.179999 -0.66667,0.293333 -1.38667,0.44 -2.16,0.44 -0.76,0 -1.48,-0.146667 -2.16,-0.44 -0.66666,-0.293333 -1.25333,-0.686666 -1.76,-1.179999 -0.49333,-0.506667 -0.88666,-1.093333 -1.18,-1.759999 -0.29333,-0.679999 -0.43999,-1.399999 -0.43999,-2.159998 z m -4.00001,0 c 0,1.319999 0.24667,2.559998 0.74001,3.719997 0.50666,1.146666 1.19333,2.153332 2.06,3.019998 0.86667,0.866666 1.88,1.553332 3.04,2.059999 1.16,0.493333 2.39333,0.74 3.69999,0.74 1.32,0 2.55333,-0.246667 3.7,-0.74 1.16,-0.506667 2.16667,-1.193333 3.02,-2.059999 0.86666,-0.866666 1.54666,-1.873332 2.04,-3.019998 0.50666,-1.159999 0.75999,-2.399998 0.75999,-3.719997 0,-1.32 -0.25333,-2.553333 -0.75999,-3.699999 -0.49334,-1.159999 -1.17334,-2.173332 -2.04,-3.039998 -0.85333,-0.866666 -1.86,-1.546665 -3.02,-2.039998 -1.14667,-0.506667 -2.38,-0.76 -3.7,-0.76 -1.30666,0 -2.53999,0.253333 -3.69999,0.76 -1.16,0.493333 -2.17333,1.173332 -3.04,2.039998 -0.86667,0.866666 -1.55334,1.879999 -2.06,3.039998 -0.49334,1.146666 -0.74001,2.379999 -0.74001,3.699999 z M 147.46658,26.93438 c 0.33334,-0.786666 0.78667,-1.446666 1.36,-1.979999 0.57333,-0.546666 1.24667,-0.966666 2.02001,-1.259999 0.77333,-0.293333 1.60666,-0.439999 2.49999,-0.439999 0.57333,0 1.05333,0.173333 1.44,0.519999 0.38667,0.333333 0.58,0.786666 0.58,1.359999 0,0.266667 -0.0533,0.52 -0.16,0.759999 -0.10667,0.24 -0.25333,0.453333 -0.44,0.64 -0.17333,0.173333 -0.38667,0.313333 -0.64,0.42 -0.24,0.09333 -0.5,0.14 -0.78,0.14 -0.34666,0 -0.66666,0.06667 -0.96,0.2 -0.28,0.12 -0.52667,0.293333 -0.74,0.52 -0.21333,0.213333 -0.37999,0.466666 -0.49999,0.759999 -0.10667,0.24 -0.16667,0.5 -0.18,0.78 v 0.14 1.039999 h 1.83999 c 0.57333,0 1.05333,0.186667 1.44,0.56 0.38667,0.373333 0.58,0.839999 0.58,1.399999 0,0.573333 -0.19333,1.053332 -0.58,1.439999 -0.38667,0.386667 -0.86667,0.58 -1.44,0.58 h -1.83999 v 12.779992 c 0,0.279999 -0.0533,0.546666 -0.16001,0.8 -0.10667,0.239999 -0.25333,0.453332 -0.43999,0.639999 -0.17334,0.173333 -0.38001,0.313333 -0.62001,0.42 -0.24,0.106666 -0.49333,0.159999 -0.75999,0.159999 -0.28,0 -0.54,-0.05333 -0.78,-0.159999 -0.24,-0.106667 -0.45333,-0.246667 -0.64,-0.42 -0.17333,-0.186667 -0.31333,-0.4 -0.42,-0.639999 -0.10667,-0.253334 -0.16001,-0.520001 -0.16001,-0.8 V 34.514374 h -1.32 c -0.28,0 -0.54,-0.05333 -0.78,-0.16 -0.24,-0.106667 -0.45333,-0.253334 -0.63999,-0.44 -0.17333,-0.186667 -0.31333,-0.4 -0.42,-0.639999 -0.0933,-0.24 -0.14,-0.5 -0.14,-0.78 0,-0.56 0.18667,-1.026666 0.56,-1.399999 0.38666,-0.373333 0.85999,-0.56 1.41999,-0.56 h 1.32 v -1.039999 -0.14 c 0.0267,-0.88 0.18667,-1.686666 0.48,-2.419999 z"
     id="path29"
     sodipodi:nodetypes="ssscscccscscscccsscscscccscccscscsscsscssscsccccccssssscscssssccscssccscscccss" />
  <path
     style="font-weight:600;font-size:65.3333px;font-family:'Antipasto Pro';-inkscape-font-specification:'Antipasto Pro Semi-Bold';white-space:pre;fill:#32c942;fill-opacity:1;stroke:none;stroke-width:0.432028;stroke-dasharray:none;stroke-opacity:1"
     d="m 182.60857,30.435795 -2.32863,16.888443 q -0.14113,0.987903 -0.89382,1.552419 -0.75269,0.540995 -1.74059,0.399866 -0.98791,-0.141129 -1.55243,-0.893817 -0.56451,-0.752689 -0.4469,-1.740593 l 3.5047,-25.215054 q 0.11761,-0.799731 0.6586,-1.317204 0.37635,-0.423387 0.8703,-0.611559 0.8703,-0.352823 1.74059,0 0.89382,0.352822 1.29369,1.246639 l 8.25605,20.181453 8.209,-20.181453 q 0.39987,-0.893817 1.24664,-1.246639 0.8703,-0.352823 1.76412,0 l 0.25873,0.141129 q 0.51748,0.235215 0.8703,0.705644 0.35282,0.470431 0.42339,1.08199 l 3.26948,25.285619 q 0.1176,0.987904 -0.49395,1.740592 -0.58804,0.729167 -1.55242,0.846774 -0.96438,0.117608 -1.74059,-0.446909 -0.75269,-0.564515 -0.8703,-1.552419 l -2.16397,-16.747312 -7.1035,17.382393 q -0.28226,0.635081 -0.84677,1.011424 -0.541,0.352823 -1.17608,0.399866 -0.72916,0.07056 -1.36424,-0.282258 -0.61157,-0.376344 -0.94087,-1.129032 z m 33.32997,0 -2.32863,16.888443 q -0.14113,0.987903 -0.89383,1.552419 -0.75268,0.540995 -1.74058,0.399866 -0.98791,-0.141129 -1.55242,-0.893817 -0.56452,-0.752689 -0.44691,-1.740593 l 3.50471,-25.215054 q 0.1176,-0.799731 0.65859,-1.317204 0.37635,-0.423387 0.8703,-0.611559 0.8703,-0.352823 1.74059,0 0.89382,0.352822 1.29369,1.246639 l 8.25604,20.181453 8.209,-20.181453 q 0.39987,-0.893817 1.24665,-1.246639 0.87029,-0.352823 1.76411,0 l 0.25875,0.141129 q 0.51746,0.235215 0.87028,0.705644 0.35283,0.470431 0.42339,1.08199 l 3.26949,25.285619 q 0.11761,0.987904 -0.49395,1.740592 -0.58804,0.729167 -1.55242,0.846774 -0.96438,0.117608 -1.74058,-0.446909 -0.7527,-0.564515 -0.87031,-1.552419 l -2.16397,-16.747312 -7.1035,17.382393 q -0.28226,0.635081 -0.84677,1.011424 -0.541,0.352823 -1.17608,0.399866 -0.72917,0.07056 -1.36425,-0.282258 -0.61156,-0.376344 -0.94086,-1.129032 z m 33.5887,-8.891128 q 0,-0.987904 -0.68212,-1.646505 -0.68213,-0.658603 -1.67003,-0.658603 -0.98791,0 -1.67002,0.658603 -0.65861,0.658601 -0.65861,1.646505 V 47.04198 q 0,0.987903 0.65861,1.646505 0.68211,0.658602 1.67002,0.658602 0.9879,0 1.67003,-0.658602 0.68212,-0.658602 0.68212,-1.646505 z m 15.12433,14.865591 q 0.9879,0.258737 1.9758,0.540995 1.01143,0.282259 1.81116,0.752689 0.79973,0.446908 1.29369,1.152553 0.51747,0.705645 0.51747,1.787635 0,1.034947 -0.49395,1.858199 -0.49396,0.799731 -1.29369,1.364247 -0.79973,0.540995 -1.81115,0.823253 -1.01143,0.282258 -2.04638,0.282258 -2.11693,0 -3.7164,-0.846774 -1.59946,-0.846774 -2.58736,-2.399194 -0.79973,-1.011425 -1.57594,-1.293683 -0.75269,-0.282258 -1.62298,0.188172 -0.37634,0.211694 -0.68213,0.517474 -0.28226,0.305779 -0.42339,0.729166 -0.14113,0.399866 -0.1176,0.917339 0.0235,0.493952 0.30578,1.058468 0.541,1.199596 1.55242,2.258065 1.01142,1.058467 2.35214,1.858199 1.34073,0.776209 2.94019,1.246639 1.62299,0.446909 3.3871,0.446909 2.1875,0 4.09275,-0.705646 1.92876,-0.705644 3.34005,-1.928763 1.43481,-1.24664 2.23454,-2.940188 0.82325,-1.693549 0.82325,-3.692877 0,-1.975806 -0.75269,-3.363575 -0.75268,-1.41129 -1.99932,-2.399194 -1.22312,-0.987903 -2.82258,-1.622984 -1.57594,-0.63508 -3.22245,-1.081989 -1.38777,-0.30578 -2.63441,-0.611559 -1.22312,-0.30578 -2.16398,-0.752688 -0.91734,-0.47043 -1.48185,-1.152554 -0.541,-0.682124 -0.541,-1.740592 0,-0.917338 0.42339,-1.646505 0.42339,-0.729167 1.12903,-1.24664 0.72917,-0.517473 1.67003,-0.776209 0.96438,-0.282258 2.02285,-0.282258 0.96438,0 1.69355,0.141129 0.75269,0.141129 1.38777,0.423386 0.6586,0.282258 1.24664,0.729167 0.58804,0.423387 1.24664,1.011425 0.37633,0.282258 0.79972,0.376344 0.42339,0.09409 0.79974,0.07056 0.39986,-0.04704 0.72917,-0.188173 0.35282,-0.16465 0.58803,-0.399864 0.21169,-0.211694 0.37635,-0.493952 0.16464,-0.282259 0.23521,-0.61156 0.0941,-0.329301 0.047,-0.658602 -0.0235,-0.352823 -0.23522,-0.682124 -0.63508,-1.081989 -1.59946,-1.905242 -0.96438,-0.823253 -2.14047,-1.364247 -1.17606,-0.564516 -2.51679,-0.846774 -1.34072,-0.282259 -2.72849,-0.282259 -1.92877,0 -3.7164,0.635081 -1.76412,0.611559 -3.15189,1.764113 -1.36425,1.152554 -2.1875,2.752016 -0.82324,1.599462 -0.82324,3.528226 0,1.905242 0.77621,3.363575 0.77621,1.434813 2.11693,2.49328 1.36424,1.058468 3.19892,1.764113 1.83468,0.682124 3.97514,1.081989 z"
     id="path30" />
  <path
     style="font-weight:600;font-size:53.3333px;font-family:'Antipasto Pro';-inkscape-font-specification:'Antipasto Pro Semi-Bold';white-space:pre;fill:#3672b3;stroke-width:0.75"
     d="m 41.157291,27.41438 c -1.279999,-1.293333 -2.719999,-2.259999 -4.319998,-2.899998 -1.586665,-0.64 -3.219998,-0.96 -4.899997,-0.96 -1.253332,0 -2.446665,0.166667 -3.579998,0.5 -1.133333,0.32 -2.179999,0.773333 -3.139998,1.359999 -0.959999,0.586666 -1.826666,1.286666 -2.599999,2.099999 -0.773332,0.813333 -1.433331,1.699999 -1.979998,2.659999 -0.533333,0.959999 -0.946666,1.986665 -1.239999,3.079998 -0.293333,1.093332 -0.44,2.206665 -0.44,3.339998 0,1.199999 0.153333,2.353331 0.46,3.459997 0.306666,1.093333 0.739999,2.119999 1.299999,3.079998 0.56,0.96 1.233333,1.84 2.019999,2.639999 0.786666,0.786667 1.659999,1.466666 2.619998,2.039999 0.959999,0.559999 1.986666,0.993332 3.079999,1.299999 1.093332,0.306667 2.233331,0.46 3.419997,0.46 1.693333,0 3.333332,-0.313333 4.919997,-0.94 1.599999,-0.626666 3.053332,-1.586665 4.359998,-2.879998 0.173333,-0.186666 0.306667,-0.399999 0.4,-0.639999 0.09333,-0.24 0.14,-0.486667 0.14,-0.74 0,-0.266667 -0.04667,-0.52 -0.14,-0.76 -0.09333,-0.253333 -0.24,-0.473332 -0.44,-0.659999 -0.186667,-0.173333 -0.4,-0.3 -0.64,-0.38 -0.24,-0.09333 -0.493333,-0.14 -0.759999,-0.14 -0.253333,0 -0.5,0.04667 -0.74,0.14 -0.24,0.09333 -0.453333,0.226667 -0.64,0.4 -0.946666,0.919999 -1.959999,1.586665 -3.039998,1.999998 -1.079999,0.413333 -2.219999,0.62 -3.419998,0.62 -1.279999,-0.01333 -2.466665,-0.26 -3.559998,-0.74 C 27.217299,44.361036 26.2773,43.701037 25.4773,42.874371 24.690634,42.047705 24.070634,41.094372 23.617301,40.014373 23.177302,38.92104 22.957302,37.767707 22.957302,36.554374 c 0,-1.253332 0.233333,-2.426664 0.699999,-3.519997 0.48,-1.093333 1.126666,-2.04 1.939999,-2.839999 0.813333,-0.813333 1.759999,-1.453332 2.839998,-1.919998 1.093333,-0.466667 2.253332,-0.7 3.479998,-0.7 1.186666,0 2.326665,0.213333 3.419998,0.64 1.106666,0.426666 2.113332,1.093332 3.019999,1.999998 0.186666,0.186667 0.399999,0.326667 0.639999,0.42 0.253333,0.08 0.506667,0.12 0.76,0.12 0.253333,0 0.5,-0.04667 0.739999,-0.14 0.253333,-0.106667 0.48,-0.253333 0.68,-0.439999 0.186666,-0.2 0.326666,-0.42 0.42,-0.66 0.09333,-0.24 0.14,-0.48 0.14,-0.72 0,-0.253333 -0.04667,-0.5 -0.14,-0.739999 -0.09333,-0.24 -0.240001,-0.453333 -0.44,-0.64 z m 7.440029,5.339997 c 0.719999,-0.693333 1.513332,-1.239999 2.379999,-1.639999 0.866666,-0.413333 1.773332,-0.62 2.719998,-0.62 1.159999,0 2.219999,0.233333 3.179999,0.7 0.959999,0.466667 1.779999,1.113333 2.459998,1.939999 0.68,0.813333 1.206666,1.786665 1.579999,2.919998 0.386667,1.119999 0.58,2.346665 0.58,3.679998 v 7.679995 c 0,0.56 -0.193333,1.026666 -0.58,1.399999 -0.373333,0.373333 -0.839999,0.56 -1.399999,0.56 -0.56,0 -1.033333,-0.186667 -1.419999,-0.56 -0.373333,-0.373333 -0.56,-0.839999 -0.56,-1.399999 v -7.599996 c 0,-0.799999 -0.1,-1.526665 -0.3,-2.179998 -0.186667,-0.666666 -0.466666,-1.233332 -0.839999,-1.699999 -0.36,-0.479999 -0.806666,-0.846666 -1.339999,-1.1 -0.533333,-0.253333 -1.133333,-0.379999 -1.799999,-0.379999 -0.653333,0 -1.26,0.126666 -1.819999,0.379999 -0.56,0.253334 -1.046666,0.600001 -1.459999,1.04 -0.413333,0.44 -0.74,0.966666 -0.98,1.579999 -0.239999,0.6 -0.373333,1.253333 -0.4,1.959999 v 7.939995 c 0,0.56 -0.193333,1.033333 -0.579999,1.419999 -0.373333,0.373333 -0.84,0.56 -1.399999,0.56 -0.28,0 -0.546667,-0.04667 -0.8,-0.14 -0.24,-0.106667 -0.453333,-0.246667 -0.639999,-0.42 -0.173333,-0.186666 -0.313333,-0.399999 -0.42,-0.639999 -0.09333,-0.24 -0.14,-0.5 -0.14,-0.78 V 25.754381 c 0,-0.28 0.05333,-0.54 0.16,-0.78 0.106667,-0.253333 0.246667,-0.466666 0.42,-0.639999 0.186667,-0.186667 0.4,-0.333333 0.64,-0.44 0.253333,-0.106667 0.513332,-0.16 0.779999,-0.16 0.28,0 0.54,0.05333 0.779999,0.16 0.24,0.106667 0.446667,0.253333 0.62,0.44 0.186667,0.173333 0.326667,0.386666 0.42,0.639999 0.106666,0.24 0.159999,0.5 0.159999,0.78 z m 15.619965,7.279996 c 0,-1.319999 0.246667,-2.553332 0.74,-3.699998 0.506666,-1.16 1.193332,-2.173333 2.059998,-3.039999 0.866666,-0.866666 1.879999,-1.546665 3.039999,-2.039998 1.159999,-0.506667 2.393332,-0.76 3.699997,-0.76 1.306666,0 2.533332,0.246667 3.679998,0.74 1.146669,0.493333 2.146668,1.173332 2.999998,2.039999 0.866665,0.853333 1.553332,1.853332 2.060002,2.999998 0.506665,1.146666 0.766665,2.373332 0.78,3.679998 v 7.339995 c 0,0.28 -0.05334,0.546667 -0.160004,0.8 -0.106665,0.239999 -0.253331,0.453333 -0.439996,0.64 -0.173335,0.186666 -0.38667,0.333332 -0.640005,0.439999 -0.253329,0.106667 -0.519994,0.16 -0.799995,0.16 -0.533335,0 -0.980002,-0.173333 -1.340002,-0.52 -0.346665,-0.359999 -0.546665,-0.793332 -0.6,-1.299999 -0.786665,0.639999 -1.646664,1.146666 -2.579997,1.519999 -0.933333,0.36 -1.919999,0.54 -2.959999,0.54 -1.306665,0 -2.539998,-0.246667 -3.699997,-0.74 -1.159999,-0.506666 -2.173332,-1.193332 -3.039998,-2.059998 -0.866667,-0.866666 -1.553333,-1.873332 -2.059999,-3.019998 -0.493333,-1.16 -0.74,-2.399999 -0.74,-3.719998 z m 3.999998,0 c 0,0.759999 0.146666,1.479999 0.439999,2.159998 0.293333,0.666666 0.686667,1.253332 1.18,1.759999 0.506666,0.493333 1.093332,0.886666 1.759999,1.179999 0.679999,0.293333 1.399999,0.44 2.159998,0.44 0.773333,0 1.493333,-0.146667 2.159999,-0.44 0.68,-0.293333 1.266666,-0.686666 1.759999,-1.179999 0.506667,-0.506667 0.9,-1.093333 1.179999,-1.759999 0.293333,-0.679999 0.439999,-1.399999 0.439999,-2.159998 0,-0.773333 -0.146666,-1.493333 -0.439999,-2.159999 -0.279999,-0.666666 -0.673332,-1.246666 -1.179999,-1.739999 -0.493333,-0.506667 -1.079999,-0.9 -1.759999,-1.18 -0.666666,-0.293333 -1.386666,-0.439999 -2.159999,-0.439999 -0.759999,0 -1.479999,0.146666 -2.159998,0.439999 -0.666667,0.28 -1.253333,0.673333 -1.759999,1.18 -0.493333,0.493333 -0.886667,1.073333 -1.18,1.739999 -0.293333,0.666666 -0.439999,1.386666 -0.439999,2.159999 z m 18.80002,-13.859992 c 0,0.306666 0.06,0.593333 0.179999,0.86 0.120001,0.266666 0.280001,0.499999 0.480001,0.699999 0.199999,0.2 0.433332,0.36 0.699997,0.48 0.266665,0.106666 0.55333,0.159999 0.859995,0.159999 0.30667,0 0.593337,-0.05333 0.860002,-0.159999 0.266665,-0.12 0.499998,-0.28 0.699994,-0.48 0.2,-0.2 0.36,-0.433333 0.48,-0.699999 0.12,-0.266667 0.18,-0.553334 0.18,-0.86 0,-0.306667 -0.06,-0.593333 -0.18,-0.859999 -0.12,-0.28 -0.28,-0.52 -0.48,-0.72 -0.199996,-0.2 -0.433329,-0.353333 -0.699994,-0.46 -0.266665,-0.12 -0.553332,-0.18 -0.860002,-0.18 -0.306665,0 -0.59333,0.06 -0.859995,0.18 -0.266665,0.106667 -0.499998,0.26 -0.699997,0.46 -0.2,0.2 -0.36,0.44 -0.480001,0.72 -0.119999,0.266666 -0.179999,0.553332 -0.179999,0.859999 z m 4.219998,6.299996 c 0,-0.28 -0.0533,-0.54 -0.16,-0.78 -0.0933,-0.24 -0.22667,-0.446666 -0.40001,-0.619999 -0.173326,-0.186667 -0.379991,-0.333333 -0.619991,-0.44 -0.24,-0.106667 -0.5,-0.16 -0.78,-0.16 -0.28,0 -0.54,0.05333 -0.78,0.16 -0.24,0.106667 -0.453333,0.253333 -0.639998,0.44 -0.186669,0.173333 -0.333337,0.379999 -0.440002,0.619999 -0.106665,0.24 -0.159998,0.5 -0.159998,0.78 v 14.879991 c 0,0.28 0.05333,0.54 0.159998,0.78 0.106665,0.24 0.246665,0.453333 0.42,0.639999 0.186665,0.173333 0.399997,0.313333 0.639998,0.42 0.253335,0.09333 0.513335,0.14 0.78,0.14 0.56,0 1.026667,-0.186667 1.400002,-0.56 0.386671,-0.386666 0.580001,-0.859999 0.580001,-1.419999 z m 7.97997,0.04 c 0.839999,-0.639999 1.759999,-1.133332 2.759999,-1.479999 1,-0.36 2.06666,-0.54 3.19999,-0.54 h 0.08 c 0.65334,0 1.16001,0.186666 1.52001,0.559999 0.36,0.373334 0.54,0.846667 0.54,1.42 0,0.573333 -0.2,1.046666 -0.6,1.419999 -0.4,0.373333 -0.88667,0.56 -1.46001,0.56 h -0.08 c -0.81333,0 -1.58666,0.16 -2.32,0.48 -0.72,0.306666 -1.35333,0.733332 -1.89999,1.279998 -0.53333,0.546667 -0.959999,1.186667 -1.279999,1.92 -0.30667,0.733332 -0.46,1.519998 -0.46,2.359998 v 6.859996 c 0,0.559999 -0.19333,1.033332 -0.58,1.419999 -0.37333,0.373333 -0.84,0.56 -1.4,0.56 -0.26667,0 -0.52667,-0.04667 -0.78,-0.14 -0.24,-0.106667 -0.45333,-0.246667 -0.64,-0.42 -0.17333,-0.186667 -0.31333,-0.4 -0.42,-0.64 -0.10667,-0.24 -0.16,-0.5 -0.16,-0.779999 V 32.474377 c 0,-0.28 0.0533,-0.54 0.16,-0.78 0.10667,-0.24 0.24667,-0.446666 0.42,-0.619999 0.18667,-0.186667 0.4,-0.333333 0.64,-0.44 0.25333,-0.106667 0.52,-0.16 0.8,-0.16 0.28,0 0.54,0.05333 0.78,0.16 0.24,0.106667 0.44667,0.253333 0.62,0.44 0.17333,0.173333 0.30667,0.379999 0.4,0.619999 0.10667,0.24 0.16,0.5 0.16,0.78 z"
     id="path31"
     sodipodi:nodetypes="ccscsscsscsccssccsscccsscsccccscccscscsccssscccssccsscscssccssssccssscccsscscssccscscscsscscsccsscccscscsscccscscscccscsssssscscssscscscscssccssscssssccssssccssssssscccssssccssssscssccsc" />
</svg>
