# Blender 3.5.1
# www.blender.org
mtllib Tetrapod.mtl
o tetrapod.004
v -0.193617 -0.496895 0.186334
v -0.077827 -0.493140 -0.236810
v 0.748183 -0.623097 -1.130872
v -1.437274 -0.252884 -0.219380
v -0.074322 0.311567 -0.495642
v -0.158124 -0.076221 -0.547286
v -0.426137 -0.108903 0.441681
v 0.604135 -0.068285 0.158182
v 0.943821 -0.744648 -0.887901
v 0.444085 0.338766 -0.274411
v 1.106145 -0.615250 -0.759343
v -1.377802 -0.273620 -0.495726
v -1.328726 -0.676111 -0.103775
v 0.003720 -0.561932 0.028108
v -1.201659 -0.723685 -0.454246
v -0.383163 0.316482 -0.330948
v -0.446830 0.326647 0.214864
v 0.178812 -0.337792 1.449665
v 0.577188 -0.652877 1.190834
v 0.335997 -0.747124 1.250316
v 0.417657 0.333231 0.238713
v -0.041769 0.335259 0.472185
v 0.643459 -0.431022 1.282243
v -0.078575 1.446121 0.262221
v -0.273219 1.444739 0.074851
v -0.242785 1.443637 -0.180521
v 1.050572 -0.237887 -1.033884
v -1.262925 -0.538170 -0.592536
v 0.117131 -0.607908 1.353158
v 1.172053 -0.346589 -0.868750
v -1.425904 -0.439578 -0.072158
v 0.208036 1.439980 0.177492
v 0.049936 1.446851 -0.314932
v 0.427773 -0.232987 1.411995
v 0.858327 -0.308178 -1.180288
v 0.282640 1.445688 -0.071707
v 0.190716 -0.531390 0.058185
vn -0.8919 0.4403 0.1030
vn -0.7361 0.3387 -0.5861
vn -0.8695 -0.0859 0.4865
vn -0.2557 -0.8673 -0.4271
vn -0.5721 -0.7340 0.3661
vn -0.4418 -0.3144 -0.8403
vn 0.8241 -0.5466 0.1485
vn 0.3519 -0.9017 -0.2512
vn 0.9788 0.1186 -0.1672
vn 0.6629 0.4356 -0.6089
vn 0.6973 0.6133 -0.3710
vn -0.1349 0.3748 -0.9172
vn 0.1634 0.2221 -0.9613
vn -0.2542 -0.1401 -0.9570
vn -0.6103 0.5975 -0.5201
vn -0.7504 0.4680 0.4668
vn -0.7179 -0.0944 0.6898
vn -0.1167 0.6031 0.7891
vn -0.3256 0.1614 0.9316
vn -0.1654 0.6960 0.6987
vn -0.6878 0.6886 0.2296
vn -0.6018 0.6751 -0.4267
vn -0.1021 -0.5741 -0.8124
vn 0.0600 -0.9027 0.4261
vn -0.4973 -0.5444 0.6755
vn 0.8446 -0.0300 0.5345
vn 0.3385 0.4494 0.8267
vn 0.5134 0.6814 0.5217
vn 0.7016 0.6958 -0.1536
vn -0.1103 -0.8753 -0.4708
vn -0.0287 -0.9995 -0.0114
vn -0.3018 -0.8851 0.3543
vn 0.9612 -0.0493 0.2714
vn 0.3766 -0.9198 0.1103
vn 0.6911 -0.6834 0.2354
vn 0.7905 0.4645 0.3992
vn 0.1227 0.6809 -0.7220
vt 0.064894 0.563671
vt 0.484776 0.364845
vt 0.919801 0.359209
vt 0.503733 0.276667
vt 0.821356 0.593056
vt 0.385363 0.103625
vt 0.690183 0.502333
vt 0.366393 0.343227
vt 0.787386 0.019760
vt 0.796928 0.277273
vt 0.848684 0.321662
vt 0.429771 0.309367
vt 0.147761 0.606597
vt 0.568675 0.325167
vt 0.150640 0.298892
vt 0.429533 0.609899
vt 0.184148 0.072194
vt 0.419230 0.076219
vt 0.786522 0.592046
vt 0.268185 0.328083
vt 0.690762 0.017906
vt 0.211718 0.100649
vt 0.606666 0.585629
vt 0.736601 0.504142
vt 0.816705 0.557793
vt 0.593399 0.646121
vt 0.614681 0.522723
vt 0.979403 0.371742
vt 0.020129 0.236699
vt 0.559771 0.261996
vt 0.020583 0.551469
vt 0.558912 0.551487
vt 0.436873 0.371355
vt 0.588677 0.552638
vt 0.823921 0.539003
vt 0.853185 0.034218
vt 0.750565 0.298550
vt 0.468430 0.086933
vt 0.657026 0.286386
vt 0.210997 0.658830
vt 0.940896 0.071074
vt 0.477167 0.628235
vt 0.247030 0.423040
vt 0.390186 0.402768
vt 0.514297 0.590914
vt 0.175101 0.380498
vt 0.407054 0.380035
vt 0.203363 0.352366
vt 0.355919 0.651870
vt 0.602850 0.032489
vt 0.261094 0.639033
vt 0.516003 0.063196
vt 0.540278 0.618744
vt 0.349615 0.417941
vt 0.668444 0.561622
vt 0.863893 0.254353
vt 0.592043 0.244658
vt 0.677687 0.602905
vt 0.840800 0.240664
vt 0.800863 0.224864
vt 0.711844 0.615887
vt 0.796914 0.650582
vt 0.291382 0.120500
vt 0.782360 0.520622
vt 0.632726 0.619808
vt 0.485123 0.599862
vt 0.210106 0.413416
vt 0.249076 0.115811
vt 0.767380 0.621150
vt 0.651830 0.513061
vt 0.574374 0.609920
vt 0.696981 0.527600
vt 0.640114 0.221171
vt 0.744197 0.214611
vt 0.749703 0.586119
vt 0.511144 0.651679
vt 0.294913 0.426417
vt 0.833178 0.626151
vt 0.333619 0.119802
vt 0.685420 0.213118
vt 0.736404 0.535484
vt 0.062575 0.250469
vt 0.518983 0.562379
s 1
usemtl concrete-tetrapod.004
f 4/7/1 12/24/2 31/70/3
f 15/35/4 13/25/5 28/64/6
f 11/22/7 9/17/8 30/68/9
f 30/68/9 27/63/10 10/20/11
f 5/8/12 10/20/11 35/79/13
f 35/79/13 6/12/14 5/8/12
f 28/64/6 6/11/14 15/35/4
f 16/37/15 4/7/1 17/39/16
f 4/7/1 31/70/3 17/39/16
f 28/64/6 12/24/2 5/10/12
f 31/70/3 13/27/5 7/14/17
f 22/51/18 17/40/16 18/43/19
f 22/52/18 24/57/20 17/38/16
f 25/59/21 26/60/22 17/41/16
f 27/62/10 30/69/9 3/5/23
f 35/78/13 27/62/10 3/5/23
f 20/45/24 18/42/19 29/66/25
f 20/45/24 23/53/26 18/42/19
f 23/53/26 34/76/27 18/42/19
f 12/23/2 28/65/6 31/71/3
f 32/72/28 25/58/21 24/55/20
f 25/58/21 32/72/28 36/81/29
f 36/81/29 26/61/22 25/58/21
f 15/35/4 2/3/30 14/28/31
f 29/67/25 7/13/17 1/1/32
f 11/22/7 8/15/33 37/82/34
f 19/44/35 23/54/26 20/47/24
f 21/48/36 30/68/9 10/20/11
f 37/82/34 14/29/31 9/17/8
f 11/22/7 37/82/34 9/17/8
f 2/4/30 3/6/23 9/18/8
f 9/18/8 14/30/31 2/4/30
f 30/68/9 21/48/36 8/15/33
f 35/79/13 10/20/11 27/63/10
f 8/15/33 11/22/7 30/68/9
f 3/6/23 6/12/14 35/79/13
f 14/33/31 13/27/5 15/34/4
f 15/35/4 6/11/14 2/3/30
f 16/37/15 12/24/2 4/7/1
f 28/64/6 5/10/12 6/11/14
f 7/14/17 17/39/16 31/70/3
f 20/46/24 1/1/32 14/31/31
f 20/47/24 14/32/31 37/83/34
f 20/46/24 29/67/25 1/1/32
f 37/83/34 19/44/35 20/47/24
f 18/43/19 34/77/27 22/51/18
f 23/54/26 21/49/36 34/77/27
f 34/77/27 21/49/36 22/51/18
f 7/13/17 18/43/19 17/40/16
f 7/13/17 29/67/25 18/43/19
f 19/44/35 8/16/33 23/54/26
f 8/16/33 21/49/36 23/54/26
f 36/80/29 32/73/28 21/50/36
f 17/41/16 24/56/20 25/59/21
f 33/74/37 36/80/29 10/21/11
f 36/80/29 21/50/36 10/21/11
f 17/41/16 26/60/22 16/36/15
f 26/60/22 33/74/37 16/36/15
f 5/9/12 33/74/37 10/21/11
f 5/9/12 16/36/15 33/74/37
f 21/50/36 32/73/28 22/52/18
f 22/52/18 32/73/28 24/57/20
f 9/19/8 3/5/23 30/69/9
f 31/71/3 28/65/6 13/26/5
f 36/81/29 33/75/37 26/61/22
f 7/14/17 13/27/5 1/2/32
f 19/44/35 37/83/34 8/16/33
f 2/4/30 6/12/14 3/6/23
f 16/37/15 5/10/12 12/24/2
f 1/2/32 13/27/5 14/33/31
